# 3ds Max Wavefront OBJ Exporter v0.97b - (c)2007 guruware
# File Created: 16.03.2018 22:43:44

mtllib Williams_Sonoma_Pen_Shell_Hexagon_Side_Table.mtl

#
# object Williams_Sonoma_Pen_Shell_Hexagon_Side_Table
#

v  173.4595 1.0000 -0.8660
v  87.4798 1.0000 -149.7873
v  87.4798 449.0000 -149.7873
v  173.4595 449.0000 -0.8660
v  85.9798 1.0000 -150.6534
v  -85.9798 1.0000 -150.6534
v  -85.9798 449.0000 -150.6534
v  85.9798 449.0000 -150.6534
v  -87.4798 1.0000 -149.7873
v  -173.4595 1.0000 -0.8660
v  -173.4595 449.0000 -0.8660
v  -87.4798 449.0000 -149.7873
v  -173.4595 1.0000 0.8660
v  -87.4797 1.0000 149.7873
v  -87.4797 449.0000 149.7873
v  -173.4595 449.0000 0.8660
v  -85.9797 1.0000 150.6534
v  85.9797 1.0000 150.6534
v  85.9797 449.0000 150.6534
v  -85.9797 449.0000 150.6534
v  87.4797 1.0000 149.7873
v  173.4595 1.0000 0.8660
v  173.4595 449.0000 0.8660
v  87.4797 449.0000 149.7873
v  -86.4024 0.0000 149.6534
v  -172.8048 0.0000 0.0000
v  -86.4024 0.0000 -149.6534
v  172.8048 0.0000 0.0000
v  86.4024 0.0000 -149.6534
v  86.4024 0.0000 149.6534
v  172.8048 450.0000 -0.0000
v  86.4024 450.0000 -149.6534
v  -86.4024 450.0000 -149.6534
v  -86.4024 450.0000 149.6534
v  -172.8048 450.0000 0.0000
v  86.4024 450.0000 149.6534
# 36 vertices

vn 0.9659 0.0000 -0.2588
vn 0.7071 0.0000 -0.7071
vn 0.0000 0.0000 -1.0000
vn -0.7071 0.0000 -0.7071
vn -0.9659 0.0000 -0.2588
vn -0.9659 -0.0000 0.2588
vn -0.7071 0.0000 0.7071
vn -0.7071 -0.0000 0.7071
vn 0.0000 0.0000 1.0000
vn 0.7071 0.0000 0.7071
vn 0.9659 0.0000 0.2588
vn 0.0000 -1.0000 -0.0000
vn 0.0000 1.0000 -0.0000
vn 0.7038 -0.6686 -0.2400
vn 0.7038 -0.6686 0.2400
vn 0.7235 -0.6904 0.0000
vn 0.3617 -0.6904 -0.6265
vn 0.1440 -0.6686 -0.7295
vn 0.5598 -0.6686 -0.4895
vn -0.7235 -0.6904 0.0000
vn -0.7038 -0.6686 0.2400
vn -0.7038 -0.6686 -0.2400
vn 0.5598 -0.6686 0.4895
vn 0.1440 -0.6686 0.7295
vn 0.3617 -0.6904 0.6265
vn 0.7038 0.6686 -0.2400
vn 0.7235 0.6904 0.0000
vn 0.7038 0.6686 0.2400
vn 0.5598 0.6686 0.4895
vn 0.3617 0.6904 0.6265
vn 0.1440 0.6686 0.7295
vn -0.3617 -0.6904 -0.6265
vn -0.5598 -0.6686 -0.4895
vn -0.1440 -0.6686 -0.7295
vn -0.3617 -0.6904 0.6265
vn -0.1440 -0.6686 0.7295
vn -0.5598 -0.6686 0.4895
vn 0.1440 0.6686 -0.7295
vn 0.3617 0.6904 -0.6265
vn 0.5598 0.6686 -0.4895
vn -0.5598 0.6686 -0.4895
vn -0.3617 0.6904 -0.6265
vn -0.1440 0.6686 -0.7295
vn -0.7038 0.6686 0.2400
vn -0.7235 0.6904 0.0000
vn -0.7038 0.6686 -0.2400
vn -0.3617 0.6904 0.6265
vn -0.5598 0.6686 0.4895
vn -0.1440 0.6686 0.7295
vn 0.5000 0.0000 -0.8660
vn -0.5000 0.0000 -0.8660
vn -0.5000 0.0000 0.8660
vn 0.5000 0.0000 0.8660
# 53 vertex normals

vt 0.0057 0.0022 0.0000
vt 0.9943 0.0022 0.0000
vt 0.9943 0.9978 0.0000
vt 0.0057 0.9978 0.0000
vt 0.8757 0.1259 -0.2500
vt 1.2513 0.5000 -0.2500
vt 0.8757 0.8741 -0.2500
vt -0.2513 0.5000 -0.2500
vt 0.1243 0.8741 -0.2500
vt 0.1243 0.1259 -0.2500
vt 1.2513 0.5000 1.2500
vt 0.8757 0.8741 1.2500
vt 0.1243 0.8741 1.2500
vt 0.1243 0.1259 1.2500
vt -0.2513 0.5000 1.2500
vt 0.8757 0.1259 1.2500
vt 0.0001 0.0052 0.0000
vt 0.0005 -0.0006 0.0000
vt 0.1196 0.8769 -0.2500
vt 0.1196 0.8702 -0.2500
vt 1.2452 0.5032 -0.2500
vt 1.2452 0.4968 -0.2500
vt -0.0002 0.0053 0.0000
vt 0.0003 -0.0007 0.0000
vt 0.0005 1.0006 0.0000
vt 0.0001 0.9948 0.0000
vt 0.0003 1.0007 0.0000
vt -0.0002 0.9947 0.0000
vt 0.8698 0.8769 -0.2500
vt 0.8698 0.8702 -0.2500
vt 0.8698 0.1298 -0.2500
vt 0.8698 0.1231 -0.2500
vt 0.1196 0.1298 1.2500
vt 0.1196 0.1231 1.2500
vt 0.8613 0.9082 -0.2500
vt 1.3088 0.8565 -0.2500
vt 0.6038 1.1236 -0.2500
vt 1.4118 0.9355 -0.2500
vt 1.0364 1.6795 -0.2500
vt 1.0980 1.3042 -0.2500
vt 0.9609 0.4654 -0.2500
vt 0.3265 0.4121 -0.2500
vt 0.5485 0.3464 -0.2500
vt 0.2241 0.5537 -0.2500
vt 0.9981 0.9978 0.0000
vt 0.9981 0.0022 0.0000
vt 0.0019 0.0022 0.0000
vt 0.0019 0.9978 0.0000
vt 1.2346 0.4594 1.2500
vt 0.5798 0.3085 1.2500
vt -1.7400 -2.5246 1.2500
vt -3.0001 -1.6264 1.2500
vt 0.9967 0.0092 0.0000
vt 0.0033 0.0092 0.0000
vt 0.0033 0.9908 0.0000
vt 0.9967 0.9908 0.0000
# 56 texture coords

g Williams_Sonoma_Pen_Shell_Hexagon_Side_Table
usemtl wire_000000000
s 1
f 1/1/1 2/2/2 3/3/2 4/4/1 
s 2
f 5/1/3 6/2/3 7/3/3 8/4/3 
s 1
f 9/1/4 10/2/5 11/3/5 12/4/4 
f 13/1/6 14/2/7 15/3/8 16/4/6 
s 2
f 17/1/9 18/2/9 19/3/9 20/4/9 
s 1
f 21/1/10 22/2/11 23/3/11 24/4/10 
f 25/5/12 26/6/12 27/7/12 28/8/12 
f 27/7/12 29/9/12 28/8/12 
f 30/10/12 25/5/12 28/8/12 
f 31/11/13 32/12/13 33/13/13 34/14/13 
f 33/13/13 35/15/13 34/14/13 
f 36/16/13 31/11/13 34/14/13 
s 4
f 1/1/14 22/17/15 28/18/16 
f 29/9/17 5/19/18 2/20/19 
f 26/6/20 13/21/21 10/22/22 
f 21/1/23 18/23/24 30/24/25 
f 4/4/26 31/25/27 23/26/28 
f 24/4/29 36/27/30 19/28/31 
f 27/7/32 9/29/33 6/30/34 
f 25/5/35 17/31/36 14/32/37 
f 8/4/38 32/27/39 3/28/40 
f 12/4/41 33/27/42 7/28/43 
f 16/4/44 35/25/45 11/26/46 
f 34/14/47 15/33/48 20/34/49 
f 1/35/14 28/8/16 29/9/17 2/36/19 
f 5/37/18 29/9/17 27/7/32 6/38/34 
f 13/39/21 26/6/20 25/5/35 14/40/37 
f 17/41/36 25/5/35 30/10/25 18/42/24 
f 21/43/23 30/10/25 28/8/16 22/44/15 
s 1
f 4/45/1 23/3/11 22/2/11 1/46/1 
f 2/47/2 5/1/50 8/4/50 3/48/2 
f 6/47/51 9/1/4 12/4/4 7/48/51 
f 10/47/5 13/1/6 16/4/6 11/48/5 
f 14/47/7 17/1/52 20/4/52 15/48/8 
s 4
f 19/49/31 36/16/30 34/14/47 20/50/49 
s 1
f 18/47/53 21/1/10 24/4/10 19/48/53 
s 4
f 23/51/28 31/11/27 36/16/30 24/52/29 
f 26/53/20 10/2/22 9/1/33 27/54/32 
f 31/55/27 4/4/26 3/3/40 32/56/39 
f 32/55/39 8/4/38 7/3/43 33/56/42 
f 33/55/42 12/4/41 11/3/46 35/56/45 
f 35/55/45 16/4/44 15/3/48 34/56/47 
# 26 polygons - 16 triangles

